# xmcd CD database file
#
# Track frame offsets:
#	150
#	19096
#	40484
#	52830
#	70303
#	90898
#
# Disc length: 1377 seconds
#
# Revision: 3
# Processed by: cddbd v1.5.2PL0 Copyright (c) Steve Scherf et al.
# Submitted via: CDex 1.70beta2
#
DISCID=41055f06
DTITLE=Anna Maria Jopek - Skłamałabym
DYEAR=2007
DGENRE=Jazz
TTITLE0=Skłamałabym
TTITLE1=Nie omijaj mnie
TTITLE2=Tiggy Dingghy Ya-Hara
TTITLE3=Jakby nic się nie stało
TTITLE4=Daleko
TTITLE5=Linda Lou
EXTD=YEAR: 2007
EXTT0=
EXTT1=
EXTT2=
EXTT3=
EXTT4=
EXTT5=
PLAYORDER=
